<svg width="46" height="46" viewBox="0 0 46 46" fill="none" xmlns="http://www.w3.org/2000/svg">
<g filter="url(#filter0_d_7995_121861)">
<path d="M23 5.5C31.5604 5.5 38.5 12.4396 38.5 21C38.5 29.5604 31.5604 36.5 23 36.5C14.4396 36.5 7.5 29.5604 7.5 21C7.5 12.4396 14.4396 5.5 23 5.5Z" stroke="white"/>
<path d="M14 34C14 31.3333 16.6 25 23 25C29.4 25 32 31.3333 32 34M29 18C29 21.3137 26.3137 24 23 24C19.6863 24 17 21.3137 17 18C17 14.6863 19.6863 12 23 12C26.3137 12 29 14.6863 29 18Z" stroke="white" stroke-linejoin="round"/>
</g>
<defs>
<filter id="filter0_d_7995_121861" x="0" y="0" width="46" height="46" filterUnits="userSpaceOnUse" color-interpolation-filters="sRGB">
<feFlood flood-opacity="0" result="BackgroundImageFix"/>
<feColorMatrix in="SourceAlpha" type="matrix" values="0 0 0 0 0 0 0 0 0 0 0 0 0 0 0 0 0 0 127 0" result="hardAlpha"/>
<feOffset dy="2"/>
<feGaussianBlur stdDeviation="3.5"/>
<feComposite in2="hardAlpha" operator="out"/>
<feColorMatrix type="matrix" values="0 0 0 0 0 0 0 0 0 0 0 0 0 0 0 0 0 0 0.08 0"/>
<feBlend mode="normal" in2="BackgroundImageFix" result="effect1_dropShadow_7995_121861"/>
<feBlend mode="normal" in="SourceGraphic" in2="effect1_dropShadow_7995_121861" result="shape"/>
</filter>
</defs>
</svg>
